<svg width="306" height="403" viewBox="0 0 306 403" fill="none" xmlns="http://www.w3.org/2000/svg">
<path d="M162.73 336.489C179.5 334.854 187.785 334.047 228.5 305C274.756 272 302.233 282.049 302.233 282.049C287.7 351.134 226.407 403 153 403V337.5C156.653 337.081 159.851 336.769 162.73 336.489Z" fill="#63C3E4"/>
<path fill-rule="evenodd" clip-rule="evenodd" d="M153 403C71.3213 403 4.6403 338.787 0.685536 258.089C0.685536 258.089 34 278 52.5 279C52.5 279 97.7683 343.838 153 337.5V403Z" fill="#3AA1CE"/>
<path fill-rule="evenodd" clip-rule="evenodd" d="M153 337.5C97.7683 343.838 52.5 279 52.5 279C71 280 92.5 274.5 126 253.5C148 288 153 337.5 153 337.5Z" fill="#45A2B6"/>
<path fill-rule="evenodd" clip-rule="evenodd" d="M305.5 250.5C305.5 261.316 304.374 271.87 302.233 282.049C302.233 282.049 274.756 272 228.5 305C187.785 334.047 179.5 334.854 162.73 336.489C159.851 336.769 156.653 337.081 153 337.5C153 337.5 148 288 126 253.5C159.5 232.5 186.483 205.106 212 186.5C236 169 274.756 163.344 274.756 163.344C292.905 193.206 305.5 223.099 305.5 250.5Z" fill="#76D0B1"/>
<path fill-rule="evenodd" clip-rule="evenodd" d="M204.545 69.5216C228.47 98.6047 255.041 130.905 274.756 163.344C274.756 163.344 236 169 212 186.5C186.483 205.106 159.5 232.5 126 253.5C92.5 274.5 71 280 52.5 279C34 278 0.685536 258.089 0.685536 258.089C0.562326 255.575 0.5 253.045 0.5 250.5C0.5 192.205 27.8073 158.796 76.2875 99.4827C97.8498 73.1022 123.601 41.5976 153 0.5C163.237 19.3082 182.798 43.0859 204.545 69.5216Z" fill="#D8EEEF"/>
<path d="M283.345 286.109C288.995 285.389 293.324 285.563 296.222 285.909C280.748 348.715 225.035 395.683 158 397.916V341.985C158.223 341.962 158.444 341.938 158.664 341.916L163.215 341.465C171.684 340.639 178.613 339.977 188.634 335.607C197.793 331.613 209.448 324.57 227.671 311.719L231.404 309.07C253.938 292.994 271.603 287.606 283.345 286.109ZM6.41602 267.037C9.5296 268.711 13.3357 270.684 17.4932 272.678C27.2721 277.367 39.7772 282.565 49.7979 283.773C50.0309 284.085 50.291 284.431 50.5801 284.81C51.9739 286.633 54.0149 289.213 56.6338 292.279C61.8642 298.403 69.4394 306.516 78.8086 314.443C96.2026 329.161 120.567 343.895 148 342.888V397.914C74.3985 395.462 14.4529 339.088 6.41602 267.037ZM124.335 260.398C133.425 276.123 139.27 294.51 142.888 309.603C144.851 317.792 146.139 324.925 146.936 330.001C147.102 331.061 147.244 332.031 147.369 332.9C123.769 333.657 101.96 320.933 85.2676 306.81C76.416 299.32 69.2216 291.62 64.2383 285.785C63.6761 285.127 63.1428 284.492 62.6387 283.886C79.2224 282.648 98.3524 276.142 124.335 260.398ZM272.229 168.845C289.264 197.46 300.5 225.347 300.5 250.5C300.5 259.233 299.739 267.784 298.285 276.094C298.145 276.074 298.002 276.055 297.857 276.036C294.154 275.557 288.846 275.327 282.08 276.189C268.732 277.891 249.917 283.817 226.705 300.145L225.596 300.93C205.271 315.429 193.381 322.627 184.637 326.44C176.144 330.144 170.545 330.703 162.244 331.512C160.91 331.642 159.499 331.781 158 331.934V331.894L157.339 331.969C157.193 330.935 157.019 329.758 156.814 328.452C155.986 323.169 154.649 315.77 152.612 307.272C148.875 291.68 142.711 272.088 132.812 255.075C148.208 245.038 162.197 233.802 175.199 222.939C189.014 211.398 201.557 200.422 213.766 191.406L214.946 190.54C226.234 182.309 241.252 176.715 253.743 173.17C259.936 171.412 265.4 170.188 269.309 169.404C270.414 169.183 271.394 168.997 272.229 168.845ZM152.558 9.67285C163.693 27.7542 181.533 49.4183 200.684 72.6982C223.113 99.9634 247.604 129.748 266.633 159.743C262.587 160.57 257.143 161.81 251.013 163.55C238.126 167.207 221.766 173.191 209.054 182.46C196.119 191.892 182.774 203.58 168.788 215.265C154.728 227.011 139.844 238.912 123.424 249.214L123.345 249.264C90.3123 269.971 69.8468 274.93 52.7695 274.007C44.6356 273.567 32.5116 268.789 21.8174 263.661C16.6045 261.161 11.9485 258.688 8.59473 256.838C7.41229 256.186 6.39543 255.61 5.57422 255.142C5.52661 253.6 5.5 252.053 5.5 250.5C5.5 194.259 31.4889 162.192 80.1592 102.646C100.621 77.6131 124.926 47.8735 152.558 9.67285Z" stroke="#184962" stroke-width="10" stroke-linecap="round"/>
<path d="M83.25 160.5C100.785 160.5 115 174.715 115 192.25C115 201.581 110.968 209.978 104.566 215.78C98.9353 220.884 91.4507 224 83.25 224C65.715 224 51.5 209.785 51.5 192.25C51.5 174.715 65.715 160.5 83.25 160.5Z" fill="#44A2B5" stroke="#194963" stroke-width="10"/>
<path d="M236.25 207.5C253.785 207.5 268 221.715 268 239.25C268 256.785 253.785 271 236.25 271C226.404 271 217.602 266.512 211.786 259.489C207.238 253.997 204.5 246.936 204.5 239.25C204.5 221.715 218.715 207.5 236.25 207.5Z" stroke="#184962" stroke-width="10"/>
<mask id="path-5-inside-1_0_1" fill="white">
<path d="M164 52C170.356 52 175.676 56.4342 177.037 62.3779C177.149 62.3751 177.262 62.375 177.375 62.375C184.762 62.375 190.75 68.3632 190.75 75.75C190.75 75.8067 190.749 75.8634 190.748 75.9199C196.715 77.4125 201.125 82.7033 201.125 89C201.125 96.4355 194.975 102.466 187.375 102.499V102.5H117.375C109.988 102.5 104 96.5118 104 89.125C104 81.7382 109.988 75.75 117.375 75.75C117.375 68.3632 123.363 62.375 130.75 62.375C131.532 62.375 132.299 62.4424 133.045 62.5713C134.333 56.5306 139.7 52 146.125 52C149.561 52 152.694 53.2957 155.062 55.4248C157.431 53.2957 160.564 52 164 52Z"/>
</mask>
<path d="M164 52C170.356 52 175.676 56.4342 177.037 62.3779C177.149 62.3751 177.262 62.375 177.375 62.375C184.762 62.375 190.75 68.3632 190.75 75.75C190.75 75.8067 190.749 75.8634 190.748 75.9199C196.715 77.4125 201.125 82.7033 201.125 89C201.125 96.4355 194.975 102.466 187.375 102.499V102.5H117.375C109.988 102.5 104 96.5118 104 89.125C104 81.7382 109.988 75.75 117.375 75.75C117.375 68.3632 123.363 62.375 130.75 62.375C131.532 62.375 132.299 62.4424 133.045 62.5713C134.333 56.5306 139.7 52 146.125 52C149.561 52 152.694 53.2957 155.062 55.4248C157.431 53.2957 160.564 52 164 52Z" fill="#B3B7B9" fill-opacity="0.69"/>
<path d="M177.037 62.3779L176.062 62.6011L176.245 63.3979L177.062 63.3776L177.037 62.3779ZM190.748 75.9199L189.748 75.9075L189.738 76.6981L190.505 76.89L190.748 75.9199ZM187.375 102.499L187.371 101.499L186.375 101.503V102.499H187.375ZM187.375 102.5V103.5H188.375V102.5H187.375ZM117.375 75.75V76.75H118.375V75.75H117.375ZM133.045 62.5713L132.875 63.5567L133.822 63.7205L134.023 62.7799L133.045 62.5713ZM155.062 55.4248L154.394 56.1685L155.062 56.7694L155.731 56.1685L155.062 55.4248ZM164 52V53C169.88 53 174.803 57.1018 176.062 62.6011L177.037 62.3779L178.012 62.1548C176.549 55.7666 170.833 51 164 51V52ZM177.037 62.3779L177.062 63.3776C177.16 63.3752 177.261 63.375 177.375 63.375V62.375V61.375C177.263 61.375 177.139 61.3751 177.012 61.3782L177.037 62.3779ZM177.375 62.375V63.375C184.21 63.375 189.75 68.9155 189.75 75.75H190.75H191.75C191.75 67.8109 185.314 61.375 177.375 61.375V62.375ZM190.75 75.75H189.75C189.75 75.7987 189.749 75.8378 189.748 75.9075L190.748 75.9199L191.748 75.9324C191.749 75.8889 191.75 75.8147 191.75 75.75H190.75ZM190.748 75.9199L190.505 76.89C196.051 78.2774 200.125 83.1871 200.125 89H201.125H202.125C202.125 82.2195 197.378 76.5476 190.991 74.9498L190.748 75.9199ZM201.125 89H200.125C200.125 95.8632 194.442 101.468 187.371 101.499L187.375 102.499L187.379 103.499C195.508 103.464 202.125 97.0077 202.125 89H201.125ZM187.375 102.499H186.375V102.5H187.375H188.375V102.499H187.375ZM187.375 102.5V101.5H117.375V102.5V103.5H187.375V102.5ZM117.375 102.5V101.5C110.54 101.5 105 95.9595 105 89.125H104H103C103 97.0641 109.436 103.5 117.375 103.5V102.5ZM104 89.125H105C105 82.2905 110.54 76.75 117.375 76.75V75.75V74.75C109.436 74.75 103 81.1859 103 89.125H104ZM117.375 75.75H118.375C118.375 68.9155 123.915 63.375 130.75 63.375V62.375V61.375C122.811 61.375 116.375 67.8109 116.375 75.75H117.375ZM130.75 62.375V63.375C131.475 63.375 132.185 63.4374 132.875 63.5567L133.045 62.5713L133.215 61.5859C132.414 61.4473 131.59 61.375 130.75 61.375V62.375ZM133.045 62.5713L134.023 62.7799C135.215 57.1911 140.182 53 146.125 53V52V51C139.218 51 133.452 55.8701 132.067 62.3627L133.045 62.5713ZM146.125 52V53C149.304 53 152.202 54.198 154.394 56.1685L155.062 55.4248L155.731 54.6811C153.186 52.3934 149.817 51 146.125 51V52ZM155.062 55.4248L155.731 56.1685C157.923 54.198 160.821 53 164 53V52V51C160.308 51 156.939 52.3934 154.394 54.6811L155.062 55.4248Z" fill="#5D7174" fill-opacity="0.15" mask="url(#path-5-inside-1_0_1)"/>
<line x1="115.733" y1="115.816" x2="111.954" y2="121.754" stroke="#5D7174" stroke-width="6" stroke-linecap="round"/>
<line x1="130.925" y1="111.578" x2="128.967" y2="114.562" stroke="#5D7174" stroke-width="6" stroke-linecap="round"/>
<line x1="142.313" y1="119.547" x2="135.685" y2="130.423" stroke="#5D7174" stroke-width="6" stroke-linecap="round"/>
<line x1="120.437" y1="135.62" x2="119.009" y2="137.549" stroke="#5D7174" stroke-width="6" stroke-linecap="round"/>
<line x1="125.73" y1="145.816" x2="120.142" y2="154.583" stroke="#5D7174" stroke-width="6" stroke-linecap="round"/>
<line x1="144.923" y1="135.578" x2="137.217" y2="147.313" stroke="#5D7174" stroke-width="6" stroke-linecap="round"/>
<line x1="139.608" y1="160.036" x2="137.174" y2="164.129" stroke="#5D7174" stroke-width="6" stroke-linecap="round"/>
<line x1="162.823" y1="156.42" x2="160.933" y2="159.538" stroke="#5D7174" stroke-width="6" stroke-linecap="round"/>
<line x1="185.823" y1="150.232" x2="181.433" y2="157.476" stroke="#5D7174" stroke-width="6" stroke-linecap="round"/>
<line x1="178.483" y1="138.877" x2="176.89" y2="141.753" stroke="#5D7174" stroke-width="6" stroke-linecap="round"/>
<line x1="162.725" y1="135.567" x2="154.456" y2="148.511" stroke="#5D7174" stroke-width="6" stroke-linecap="round"/>
<line x1="175.821" y1="126.848" x2="174.737" y2="128.415" stroke="#5D7174" stroke-width="6" stroke-linecap="round"/>
<line x1="191.145" y1="111.334" x2="186.473" y2="118.342" stroke="#5D7174" stroke-width="6" stroke-linecap="round"/>
<line x1="171.672" y1="111.519" x2="165.908" y2="121.565" stroke="#5D7174" stroke-width="6" stroke-linecap="round"/>
<line x1="155.389" y1="117.148" x2="153.148" y2="120.611" stroke="#5D7174" stroke-width="6" stroke-linecap="round"/>
</svg>
